# xmcd
#
# Track frame offsets:
#   150
#   13118
#   29542
#   45835
#   61685
#   83758
#   99399
#   117113
#   138269
#   154311
#   170003
#   187335
#   204212
#   222310
#   238013
#   256252
#   265708
#   281065
#
# Disc length: 4004 seconds
#
# Revision: 0
# Processed by: cddbd v1.5.2PL0 Copyright (c) Steve Scherf et al.
# Submitted via: uFREEDB ActiveX Control 1.5
#
DISCID=f70fa212
DTITLE=Paula Fernanders - Ao vivo
DYEAR=2012
DGENRE=Country
TTITLE0=passaro de fogo
TTITLE1=meu eu em você
TTITLE2=pra você
TTITLE3=tocando em frente
TTITLE4=amargurado/ sem você/ ainda ontem chorei de saudad
TTITLE5=complicados demais
TTITLE6=voa
TTITLE7=jeito de mato
TTITLE8=não precisa
TTITLE9=navegar em mim
TTITLE10=quando a chuva passar
TTITLE11=sensações
TTITLE12=quero sim
TTITLE13=pra que conversar
TTITLE14=costumes
TTITLE15=seio de minas
TTITLE16=isso é amar você
TTITLE17=cansei de mentir
EXTD=
EXTT0=
EXTT1=
EXTT2=
EXTT3=
EXTT4=
EXTT5=
EXTT6=
EXTT7=
EXTT8=
EXTT9=
EXTT10=
EXTT11=
EXTT12=
EXTT13=
EXTT14=
EXTT15=
EXTT16=
EXTT17=
PLAYORDER=
